<svg xmlns="http://www.w3.org/2000/svg" xmlns:xlink="http://www.w3.org/1999/xlink" version="1.1" x="0px" y="0px" viewBox="0 0 100 125" style="enable-background:new 0 0 100 100;" xml:space="preserve"><path d="M11.125,90.072h60.573c0.552,0,1-0.448,1-1v-5.802l16.55-2.052c0.548-0.068,0.938-0.567,0.869-1.115l-8.582-69.226  c-0.033-0.264-0.169-0.504-0.38-0.667c-0.21-0.164-0.477-0.233-0.741-0.201l-38.222,4.977c-0.046,0.006-0.083,0.031-0.126,0.043  H11.125c-0.552,0-1,0.448-1,1v73.044C10.125,89.624,10.573,90.072,11.125,90.072z M79.675,12.122l8.335,67.235l-15.312,1.898V16.028  c0-0.552-0.448-1-1-1H57.354L79.675,12.122z M12.125,17.028h58.573v71.044H12.125V17.028z"/><path d="M59.448,29.727H23.375c-0.552,0-1,0.448-1,1s0.448,1,1,1h36.073c0.552,0,1-0.448,1-1S60,29.727,59.448,29.727z"/><path d="M59.448,40.639H23.375c-0.552,0-1,0.448-1,1s0.448,1,1,1h36.073c0.552,0,1-0.448,1-1S60,40.639,59.448,40.639z"/><path d="M59.448,51.55H23.375c-0.552,0-1,0.448-1,1s0.448,1,1,1h36.073c0.552,0,1-0.448,1-1S60,51.55,59.448,51.55z"/><path d="M59.448,62.461H23.375c-0.552,0-1,0.448-1,1s0.448,1,1,1h36.073c0.552,0,1-0.448,1-1S60,62.461,59.448,62.461z"/><path d="M59.448,73.373H23.375c-0.552,0-1,0.448-1,1s0.448,1,1,1h36.073c0.552,0,1-0.448,1-1S60,73.373,59.448,73.373z"/></svg>