<svg xmlns="http://www.w3.org/2000/svg" xmlns:xlink="http://www.w3.org/1999/xlink" version="1.1" x="0px" y="0px" viewBox="0 0 100 125" style="enable-background:new 0 0 100 100;" xml:space="preserve"><path d="M11,80.822h1.604c0.099,5.042,4.224,9.115,9.289,9.115c5.065,0,9.19-4.073,9.29-9.115H48.57  C50.046,86.107,54.893,90,60.643,90c6.917,0,12.545-5.628,12.545-12.545c0-5.517-3.584-10.203-8.543-11.879v-5.266  c0-2.649-2.155-4.805-4.805-4.805h-2.545c-0.332-25.654-19.14-37.544-19.332-37.662c-0.158-0.097-0.339-0.148-0.524-0.148H15.583  c-0.552,0-1,0.447-1,1v25.403h-0.62c-2.185,0-3.963,1.778-3.963,3.964v31.76C10,80.375,10.448,80.822,11,80.822z M21.893,87.938  c-4.024,0-7.298-3.274-7.298-7.299s3.274-7.299,7.298-7.299s7.299,3.274,7.299,7.299S25.917,87.938,21.893,87.938z M71.188,77.455  C71.188,83.27,66.457,88,60.643,88c-5.815,0-10.545-4.73-10.545-10.545s4.73-10.545,10.545-10.545  C66.457,66.91,71.188,71.641,71.188,77.455z M16.583,19.695H37.14c2.09,1.409,17.846,12.816,18.155,35.811h-4.481  c-2.542,0-4.974-1.084-6.672-2.974l-3.839-4.271c-2.379-2.646-5.784-4.163-9.341-4.163h-14.38V19.695z M12,48.062  c0-1.083,0.88-1.964,1.963-1.964h17c2.991,0,5.854,1.276,7.854,3.501l3.839,4.271c2.078,2.311,5.052,3.636,8.16,3.636h9.025  c1.546,0,2.805,1.258,2.805,2.805v4.775c-0.654-0.106-1.319-0.175-2.002-0.175c-6.917,0-12.545,5.628-12.545,12.545  c0,0.462,0.029,0.918,0.078,1.367H31.011c-0.847-4.26-4.612-7.482-9.118-7.482c-4.505,0-8.27,3.222-9.117,7.482H12V48.062z"/><path d="M76.337,78.081c0.108,0.246,0.312,0.438,0.564,0.533c0.113,0.042,0.232,0.063,0.351,0.063c0.146,0,0.291-0.032,0.426-0.095  l11.748-5.524c0.5-0.235,0.714-0.831,0.479-1.331s-0.83-0.714-1.331-0.479l-10.82,5.089L48.79,10.597  c-0.223-0.505-0.812-0.732-1.318-0.512c-0.505,0.223-0.734,0.812-0.512,1.318L76.337,78.081z"/></svg>