<svg xmlns="http://www.w3.org/2000/svg" xmlns:xlink="http://www.w3.org/1999/xlink" version="1.1" x="0px" y="0px" viewBox="0 0 100 125" style="enable-background:new 0 0 100 100;" xml:space="preserve"><style type="text/css">
	.st0{fill:none;stroke:#000000;stroke-width:2;stroke-linecap:round;stroke-linejoin:round;stroke-miterlimit:10;}
</style><path d="M18.8,48.2h6.4v38.7c0,0.6,0.4,1,1,1h47.7c0.6,0,1-0.4,1-1V48.2h6.4c0.4,0,0.8-0.2,0.9-0.6c0.2-0.4,0.1-0.8-0.2-1.1  L50.7,15.3c-0.4-0.4-1-0.4-1.4,0L18.1,46.5c-0.3,0.3-0.4,0.7-0.2,1.1C18,48,18.4,48.2,18.8,48.2z M50,17.4l28.8,28.8h-4.9  c-0.6,0-1,0.4-1,1v38.7H27.1V47.2c0-0.6-0.4-1-1-1h-4.9L50,17.4z"/></svg>