<svg xmlns="http://www.w3.org/2000/svg" xmlns:xlink="http://www.w3.org/1999/xlink" version="1.1" x="0px" y="0px" viewBox="0 0 100 125" style="enable-background:new 0 0 100 100;" xml:space="preserve"><path d="M30.399,10c-2.953,0-5.356,2.403-5.356,5.357v69.286c0,2.954,2.403,5.357,5.356,5.357h39.201  c2.954,0,5.357-2.403,5.357-5.357V15.357c0-2.954-2.403-5.357-5.357-5.357H30.399z M72.958,15.357v69.286  c0,1.851-1.506,3.357-3.357,3.357H30.399c-1.851,0-3.356-1.506-3.356-3.357V15.357c0-1.851,1.506-3.357,3.356-3.357h39.201  C71.452,12,72.958,13.506,72.958,15.357z"/><path d="M30.751,19.085c-0.553,0-1,0.448-1,1v56.35c0,0.552,0.447,1,1,1h38.498c0.553,0,1-0.448,1-1v-56.35c0-0.552-0.447-1-1-1  H30.751z M68.249,75.435H31.751v-54.35h36.498V75.435z"/><path d="M46.717,16.561h6.567c0.553,0,1-0.448,1-1s-0.447-1-1-1h-6.567c-0.553,0-1,0.448-1,1S46.164,16.561,46.717,16.561z"/><path d="M50,79.083c-1.987,0-3.604,1.617-3.604,3.605s1.617,3.605,3.604,3.605c1.988,0,3.605-1.617,3.605-3.605  S51.988,79.083,50,79.083z M50,84.293c-0.885,0-1.604-0.72-1.604-1.605s0.72-1.605,1.604-1.605c0.886,0,1.605,0.72,1.605,1.605  S50.886,84.293,50,84.293z"/></svg>